<?xml version="1.0" encoding="UTF-8"?>
<svg version="1.1" xmlns="http://www.w3.org/2000/svg" width="88" height="157">
<path d="M0 0 C1.07266113 0.02646606 1.07266113 0.02646606 2.16699219 0.0534668 C4.25903358 0.11503906 6.34719872 0.20826873 8.4375 0.3125 C9.47261719 0.35632813 10.50773437 0.40015625 11.57421875 0.4453125 C19.30151226 0.97663612 19.30151226 0.97663612 22.4375 4.3125 C23.01171875 7.52734375 23.01171875 7.52734375 23.125 11.25 C23.23085756 15.95611063 23.23085756 15.95611063 24.01953125 20.56640625 C24.4375 22.3125 24.4375 22.3125 23.4375 25.3125 C23.31177141 27.24872036 23.21033927 29.18657947 23.125 31.125 C22.73255713 36.54725227 21.70851271 39.09183843 18.4375 43.3125 C18.00760596 47.20074413 18.00760596 47.20074413 19.9765625 49.13671875 C20.66492187 49.75160156 21.35328125 50.36648437 22.0625 51 C30.57079044 59.16193525 34.55117433 67.46218696 35.875 79.1875 C35.4375 82.3125 35.4375 82.3125 33.375 84.6875 C31.19160977 87.6456416 31.20280813 88.19671984 31.5625 91.6875 C32.2093553 95.66866096 33.21212264 99.47298427 34.4375 103.3125 C35.12457031 103.32667969 35.81164062 103.34085937 36.51953125 103.35546875 C43.8501434 103.74349829 43.8501434 103.74349829 46.4375 106.25 C49.49101236 115.60138162 51.62432313 126.99930838 46.99609375 136.16796875 C45.4375 138.3125 45.4375 138.3125 43.6875 139.3125 C39.50786977 139.3125 35.85936552 137.44018645 32.625 134.875 C31.4375 133.3125 31.4375 133.3125 30.6484375 131.2890625 C29.60548054 129.13636145 29.60548054 129.13636145 27.37109375 128.51953125 C26.54738281 128.38933594 25.72367188 128.25914062 24.875 128.125 C23.98941406 127.97933594 23.10382812 127.83367187 22.19140625 127.68359375 C18.27678281 127.1560913 14.36950024 126.69301615 10.4375 126.3125 C10.48970703 128.11847656 10.48970703 128.11847656 10.54296875 129.9609375 C10.5711028 131.53644442 10.59840337 133.11196638 10.625 134.6875 C10.65013672 135.4815625 10.67527344 136.275625 10.70117188 137.09375 C10.72754405 139.16836148 10.59236462 141.24350865 10.4375 143.3125 C0.4317404 149.9830064 -17.47016405 146.37619041 -28.5625 144.3125 C-29.90632979 138.93718085 -29.52325424 135.90364301 -26.8125 131.046875 C-25.08296551 128.64714589 -23.27060123 127.45275315 -20.5625 126.3125 C-19.9025 126.3125 -19.2425 126.3125 -18.5625 126.3125 C-18.32015625 125.2503125 -18.0778125 124.188125 -17.828125 123.09375 C-13.61170891 105.11447576 -13.61170891 105.11447576 -8.25 100.1875 C-7.693125 99.56875 -7.13625 98.95 -6.5625 98.3125 C-6.70599347 95.11295046 -6.70599347 95.11295046 -7.5625 92.3125 C-8.51125 92.209375 -9.46 92.10625 -10.4375 92 C-13.5625 91.3125 -13.5625 91.3125 -15.5625 88.3125 C-16.2371988 81.22816265 -16.2371988 81.22816265 -13.8125 77.9375 C-11.77778758 76.46798547 -9.81347471 75.40015585 -7.5625 74.3125 C-7.69269531 73.74144531 -7.82289062 73.17039062 -7.95703125 72.58203125 C-9.32974691 64.5125158 -6.87806789 58.63198898 -3.5625 51.3125 C-4.6453125 50.260625 -4.6453125 50.260625 -5.75 49.1875 C-14.6901509 40.2473491 -14.6901509 40.2473491 -14.8125 33.875 C-14.77750377 28.98952571 -13.70743177 24.90170745 -12.28515625 20.2578125 C-11.2209842 15.92059236 -11.09856626 11.61177213 -10.96875 7.16015625 C-9.96968618 0.15710313 -6.38070553 -0.27310126 0 0 Z " fill="#8A8585" transform="translate(32.5625,6.6875)"/>
<path d="M0 0 C0.66 0.99 1.32 1.98 2 3 C1.67 3.99 1.34 4.98 1 6 C2.32 5.67 3.64 5.34 5 5 C5 5.66 5 6.32 5 7 C5.99 6.34 6.98 5.68 8 5 C13.56521239 4.22345874 17.30447125 6.33046081 22 9 C21.67 10.32 21.34 11.64 21 13 C22.423125 13.3403125 22.423125 13.3403125 23.875 13.6875 C27 15 27 15 28.3125 17.0625 C29.92767241 23.96369121 30.43681594 29.26292063 28 36 C27.34 36 26.68 36 26 36 C26 37.65 26 39.3 26 41 C26.99 41.33 27.98 41.66 29 42 C29.66 42.99 30.32 43.98 31 45 C33.56282742 45.72965366 33.56282742 45.72965366 36 46 C36.05850924 42.31256766 36.09376673 38.6252563 36.125 34.9375 C36.15013672 33.37999023 36.15013672 33.37999023 36.17578125 31.79101562 C36.21183286 26.11288716 35.92971166 21.35608946 34 16 C33.01 16 32.02 16 31 16 C30.505 14.515 30.505 14.515 30 13 C36.40359897 13.36246787 36.40359897 13.36246787 38.8125 15.9375 C42.25048912 24.80389299 42.70556967 33.6250902 41 43 C38.66904697 47.61768745 38.66904697 47.61768745 36.25 49 C32.07036977 49 28.42186552 47.12768645 25.1875 44.5625 C24 43 24 43 23.2109375 40.9765625 C22.16798054 38.82386145 22.16798054 38.82386145 19.93359375 38.20703125 C19.10988281 38.07683594 18.28617188 37.94664062 17.4375 37.8125 C16.55191406 37.66683594 15.66632812 37.52117187 14.75390625 37.37109375 C10.83928281 36.8435913 6.93200024 36.38051615 3 36 C3.05220703 37.80597656 3.05220703 37.80597656 3.10546875 39.6484375 C3.1336028 41.22394442 3.16090337 42.79946638 3.1875 44.375 C3.21263672 45.1690625 3.23777344 45.963125 3.26367188 46.78125 C3.29004405 48.85586148 3.15486462 50.93100865 3 53 C-7.0057596 59.6705064 -24.90766405 56.06369041 -36 54 C-37.34382979 48.62468085 -36.96075424 45.59114301 -34.25 40.734375 C-32.52046551 38.33464589 -30.70810123 37.14025315 -28 36 C-27.34 36 -26.68 36 -26 36 C-25.73445313 34.90300781 -25.46890625 33.80601562 -25.1953125 32.67578125 C-24.83873185 31.22130753 -24.4819504 29.76688302 -24.125 28.3125 C-23.86396484 27.2306543 -23.86396484 27.2306543 -23.59765625 26.12695312 C-21.52435103 17.71854864 -19.44852961 13.71407897 -12 9 C-9 7.625 -9 7.625 -7 7 C-7 5.02 -7 3.04 -7 1 C-6.34 1.99 -5.68 2.98 -5 4 C-2.94074861 4.72382467 -2.94074861 4.72382467 -1 5 C-1.495 3.02 -1.495 3.02 -2 1 C-1.34 0.67 -0.68 0.34 0 0 Z " fill="#1E2F45" transform="translate(40,97)"/>
<path d="M0 0 C1.07266113 0.02646606 1.07266113 0.02646606 2.16699219 0.0534668 C4.25903358 0.11503906 6.34719872 0.20826873 8.4375 0.3125 C9.47261719 0.35632813 10.50773437 0.40015625 11.57421875 0.4453125 C19.30151226 0.97663612 19.30151226 0.97663612 22.4375 4.3125 C23.01171875 7.52734375 23.01171875 7.52734375 23.125 11.25 C23.23085756 15.95611063 23.23085756 15.95611063 24.01953125 20.56640625 C24.4375 22.3125 24.4375 22.3125 23.4375 25.3125 C23.31177141 27.24872036 23.21033927 29.18657947 23.125 31.125 C22.73255713 36.54725227 21.70851271 39.09183843 18.4375 43.3125 C18.4375 44.6325 18.4375 45.9525 18.4375 47.3125 C18.4375 48.3025 18.4375 49.2925 18.4375 50.3125 C16.7875 49.6525 15.1375 48.9925 13.4375 48.3125 C13.1075 49.3025 12.7775 50.2925 12.4375 51.3125 C12.4375 49.9925 12.4375 48.6725 12.4375 47.3125 C11.344375 47.8075 10.25125 48.3025 9.125 48.8125 C5.4375 50.3125 5.4375 50.3125 2.4375 50.3125 C2.7675 51.9625 3.0975 53.6125 3.4375 55.3125 C2.4475 55.3125 1.4575 55.3125 0.4375 55.3125 C0.4375 53.9925 0.4375 52.6725 0.4375 51.3125 C-0.2225 51.3125 -0.8825 51.3125 -1.5625 51.3125 C-2.0575 53.7875 -2.0575 53.7875 -2.5625 56.3125 C-3.2225 56.3125 -3.8825 56.3125 -4.5625 56.3125 C-4.1603125 55.2296875 -4.1603125 55.2296875 -3.75 54.125 C-3.21793333 51.12885342 -3.21793333 51.12885342 -5.6875 48.875 C-6.63625 48.029375 -7.585 47.18375 -8.5625 46.3125 C-13.24852705 41.08279025 -14.84300722 38.13380779 -14.79296875 31.1484375 C-14.48233063 27.32600911 -13.40427272 23.9118579 -12.28515625 20.2578125 C-11.2209842 15.92059236 -11.09856626 11.61177213 -10.96875 7.16015625 C-9.96968618 0.15710313 -6.38070553 -0.27310126 0 0 Z " fill="#E5BA9F" transform="translate(32.5625,6.6875)"/>
<path d="M0 0 C0.66 4.29 1.32 8.58 2 13 C2.99 13.33 3.98 13.66 5 14 C5.66 13.67 6.32 13.34 7 13 C6.60134106 15.71208885 6.18184691 18.41816578 5.75 21.125 C5.64042969 21.88554688 5.53085937 22.64609375 5.41796875 23.4296875 C4.59462966 28.45638928 3.39622032 32.02875825 0 36 C-2.54296875 37.42578125 -2.54296875 37.42578125 -5.1875 38.3125 C-8.3532898 39.22532077 -8.3532898 39.22532077 -11 41 C-13.92474109 41.28767945 -16.15459635 41.50114741 -19 41 C-21.25 38.75 -21.25 38.75 -23 36 C-23.721875 35.278125 -24.44375 34.55625 -25.1875 33.8125 C-28.02018156 30.97981844 -28.17976044 29.09164887 -28.25 25.1875 C-28.19582594 21.0281364 -28.01667413 18.12069737 -25 15 C-22.3125 14.6875 -22.3125 14.6875 -20 15 C-20.99 15.66 -21.98 16.32 -23 17 C-22.690625 17.886875 -22.38125 18.77375 -22.0625 19.6875 C-21 23 -21 23 -20.5 25.8125 C-20.2525 26.8953125 -20.2525 26.8953125 -20 28 C-19.34 28.33 -18.68 28.66 -18 29 C-18.33 29.33 -18.66 29.66 -19 30 C-16.69 30 -14.38 30 -12 30 C-12 29.34 -12 28.68 -12 28 C-10.35 28 -8.7 28 -7 28 C-7 27.01 -7 26.02 -7 25 C-8.65 25 -10.3 25 -12 25 C-12 25.66 -12 26.32 -12 27 C-12.66 27 -13.32 27 -14 27 C-14 26.34 -14 25.68 -14 25 C-15.98 24.67 -17.96 24.34 -20 24 C-20 23.34 -20 22.68 -20 22 C-16.04 21.505 -16.04 21.505 -12 21 C-12.66 18.69 -13.32 16.38 -14 14 C-13.34 14.33 -12.68 14.66 -12 15 C-10.46331135 15.22467831 -8.92031946 15.40796805 -7.375 15.5625 C-6.55773437 15.64628906 -5.74046875 15.73007812 -4.8984375 15.81640625 C-4.27195312 15.87699219 -3.64546875 15.93757813 -3 16 C-3.33 13.69 -3.66 11.38 -4 9 C-8.65499974 8.18537505 -13.30976546 7.56606279 -18 7 C-18.33 5.02 -18.66 3.04 -19 1 C-16.02085163 0.83300069 -13.04168271 0.66638454 -10.0625 0.5 C-8.78729492 0.42845703 -8.78729492 0.42845703 -7.48632812 0.35546875 C-6.67744141 0.31035156 -5.86855469 0.26523438 -5.03515625 0.21875 C-4.2862915 0.17685547 -3.53742676 0.13496094 -2.76586914 0.09179688 C-1.84464901 0.0439082 -0.92246402 0 0 0 Z " fill="#E4B199" transform="translate(48,15)"/>
<path d="M0 0 C1.9375 0.8125 1.9375 0.8125 4 2 C5.20190901 5.60572704 5.32670315 8.2102435 5 12 C3.9790625 13.175625 3.9790625 13.175625 2.9375 14.375 C0.75410977 17.3331416 0.76530813 17.88421984 1.125 21.375 C1.7718553 25.35616096 2.77462264 29.16048427 4 33 C5.32 33.33 6.64 33.66 8 34 C8 34.66 8 35.32 8 36 C8.99 36 9.98 36 11 36 C13.83084665 41.58719734 14.41495445 45.9082792 14.25 52.125 C14.24484375 52.91003906 14.2396875 53.69507813 14.234375 54.50390625 C14.18109064 58.45360932 13.95962809 62.14600978 13 66 C10.8125 66.3125 10.8125 66.3125 8 66 C5.1875 63.8125 5.1875 63.8125 3 61 C2.6875 58.1875 2.6875 58.1875 3 56 C3.66 56 4.32 56 5 56 C6.39058858 48.49082168 5.40613404 42.21840212 3 35 C1.02 34.67 -0.96 34.34 -3 34 C-2.67 32.35 -2.34 30.7 -2 29 C-7.47451484 26.42375772 -11.03817472 25.01272491 -17 27 C-17.33 26.01 -17.66 25.02 -18 24 C-18.66 24 -19.32 24 -20 24 C-19.67 22.35 -19.34 20.7 -19 19 C-19.66 19 -20.32 19 -21 19 C-20.505 17.515 -20.505 17.515 -20 16 C-18.7625 15.87625 -17.525 15.7525 -16.25 15.625 C-13.10351555 15.31035155 -10.63310764 14.81672929 -8 13 C-7.30620743 10.9499186 -7.30620743 10.9499186 -7.125 8.625 C-6.3897017 4.3970348 -6.3897017 4.3970348 -4.546875 2.51953125 C-2.875 1.4375 -2.875 1.4375 0 0 Z " fill="#C5A58E" transform="translate(63,77)"/>
<path d="M0 0 C5.47345761 4.35642544 10.26049598 9.03270636 14 15 C14 18 14 18 12.64453125 19.421875 C7.73123862 22.98375025 7.73123862 22.98375025 4.1875 23.0625 C1.54558408 21.77928369 0.96692658 20.7249749 0 18 C0.77479736 20.99152582 0.77479736 20.99152582 2 24 C2.99 24.33 3.98 24.66 5 25 C5.8359375 26.86328125 5.8359375 26.86328125 6 29 C1.76264661 34.68697429 1.76264661 34.68697429 -2.23535156 35.39697266 C-4.48962203 35.64926361 -6.73661863 35.85264913 -9 36 C-9.02892857 32.04168191 -9.04677427 28.08339083 -9.0625 24.125 C-9.07087891 22.99707031 -9.07925781 21.86914062 -9.08789062 20.70703125 C-9.09111328 19.63066406 -9.09433594 18.55429688 -9.09765625 17.4453125 C-9.10289307 16.45031738 -9.10812988 15.45532227 -9.11352539 14.43017578 C-9 12 -9 12 -8 10 C-6.35 10.33 -4.7 10.66 -3 11 C-2.01 7.37 -1.02 3.74 0 0 Z " fill="#CDD9E8" transform="translate(50,57)"/>
<path d="M0 0 C1.07266113 0.02646606 1.07266113 0.02646606 2.16699219 0.0534668 C4.25903358 0.11503906 6.34719872 0.20826873 8.4375 0.3125 C9.47261719 0.35632813 10.50773437 0.40015625 11.57421875 0.4453125 C19.30151226 0.97663612 19.30151226 0.97663612 22.4375 4.3125 C23.01171875 7.52734375 23.01171875 7.52734375 23.125 11.25 C23.23085756 15.95611063 23.23085756 15.95611063 24.01953125 20.56640625 C24.4375 22.3125 24.4375 22.3125 23.4375 25.3125 C23.31177141 27.24872036 23.21033927 29.18657947 23.125 31.125 C22.73255713 36.54725227 21.70851271 39.09183843 18.4375 43.3125 C18.4375 44.6325 18.4375 45.9525 18.4375 47.3125 C18.4375 48.3025 18.4375 49.2925 18.4375 50.3125 C16.7875 49.6525 15.1375 48.9925 13.4375 48.3125 C13.1075 49.3025 12.7775 50.2925 12.4375 51.3125 C12.4375 49.9925 12.4375 48.6725 12.4375 47.3125 C11.344375 47.8075 10.25125 48.3025 9.125 48.8125 C5.4375 50.3125 5.4375 50.3125 2.4375 50.3125 C2.7675 51.9625 3.0975 53.6125 3.4375 55.3125 C2.4475 55.3125 1.4575 55.3125 0.4375 55.3125 C0.4375 53.9925 0.4375 52.6725 0.4375 51.3125 C-0.2225 51.3125 -0.8825 51.3125 -1.5625 51.3125 C-2.0575 53.7875 -2.0575 53.7875 -2.5625 56.3125 C-3.2225 56.3125 -3.8825 56.3125 -4.5625 56.3125 C-4.1603125 55.2296875 -4.1603125 55.2296875 -3.75 54.125 C-3.21793333 51.12885342 -3.21793333 51.12885342 -5.6875 48.875 C-6.63625 48.029375 -7.585 47.18375 -8.5625 46.3125 C-13.24852705 41.08279025 -14.84300722 38.13380779 -14.79296875 31.1484375 C-14.48233063 27.32600911 -13.40427272 23.9118579 -12.28515625 20.2578125 C-11.2209842 15.92059236 -11.09856626 11.61177213 -10.96875 7.16015625 C-9.96968618 0.15710313 -6.38070553 -0.27310126 0 0 Z M-5.5625 2.3125 C-5.5625 3.6325 -5.5625 4.9525 -5.5625 6.3125 C-6.5525 6.8075 -6.5525 6.8075 -7.5625 7.3125 C-8.25477032 10.12230673 -8.25477032 10.12230673 -8.6875 13.375 C-8.85507812 14.47972656 -9.02265625 15.58445312 -9.1953125 16.72265625 C-9.31648438 17.57730469 -9.43765625 18.43195312 -9.5625 19.3125 C-8.9025 19.3125 -8.2425 19.3125 -7.5625 19.3125 C-7.5625 19.9725 -7.5625 20.6325 -7.5625 21.3125 C-8.2225 21.3125 -8.8825 21.3125 -9.5625 21.3125 C-12.54190295 27.02302231 -13.36184415 31.88489703 -12.5625 38.3125 C-10.79575333 42.49690002 -7.83768425 45.20969387 -4.5625 48.3125 C-4.2325 48.6425 -3.9025 48.9725 -3.5625 49.3125 C4.36342692 50.02017205 10.18889166 47.93903441 16.375 42.9375 C21.20431809 36.79109516 21.4375 28.89727685 21.4375 21.3125 C20.4475 21.8075 20.4475 21.8075 19.4375 22.3125 C18.7775 21.9825 18.1175 21.6525 17.4375 21.3125 C16.96175562 18.77225996 16.59742453 16.31198536 16.3125 13.75 C16.22613281 13.03908203 16.13976562 12.32816406 16.05078125 11.59570312 C15.83815217 9.83560688 15.63677303 8.07415836 15.4375 6.3125 C16.0975 6.3125 16.7575 6.3125 17.4375 6.3125 C17.1075 8.9525 16.7775 11.5925 16.4375 14.3125 C17.0975 14.3125 17.7575 14.3125 18.4375 14.3125 C18.7675 15.6325 19.0975 16.9525 19.4375 18.3125 C19.4375 13.6925 19.4375 9.0725 19.4375 4.3125 C12.34678468 0.76714234 2.12481437 2.21408488 -5.5625 2.3125 Z " fill="#726D65" transform="translate(32.5625,6.6875)"/>
<path d="M0 0 C0.8353125 1.2065625 0.8353125 1.2065625 1.6875 2.4375 C4.34202462 5.37900025 5.20178652 5.50591495 9 6 C10.61961498 6.07649781 12.24189445 6.10811681 13.86328125 6.09765625 C14.74951172 6.09443359 15.63574219 6.09121094 16.54882812 6.08789062 C17.46083984 6.07951172 18.37285156 6.07113281 19.3125 6.0625 C20.24384766 6.05798828 21.17519531 6.05347656 22.13476562 6.04882812 C24.42324373 6.03709234 26.71158808 6.02067363 29 6 C28.7215625 7.423125 28.7215625 7.423125 28.4375 8.875 C27.71313368 11.89868793 27.71313368 11.89868793 29 14 C25.94954318 15.52522841 22.78044147 15.10065213 19.4375 15.0625 C18.31686157 15.05682007 18.31686157 15.05682007 17.17358398 15.05102539 C13.97144987 15.03463849 10.76944222 15.00648667 7.56738281 14.97949219 C5.23242782 14.96146531 2.89749324 14.94933486 0.5625 14.9375 C-0.16461182 14.92920166 -0.89172363 14.92090332 -1.64086914 14.91235352 C-5.446094 14.82546829 -5.446094 14.82546829 -9 16 C-8.24170616 7.0521327 -8.24170616 7.0521327 -5 3 C-2.3125 1.1875 -2.3125 1.1875 0 0 Z " fill="#B3B4B2" transform="translate(12,133)"/>
<path d="M0 0 C-0.33 3.96 -0.66 7.92 -1 12 C-2.32 11.67 -3.64 11.34 -5 11 C-4.67 9.35 -4.34 7.7 -4 6 C-4.66 6 -5.32 6 -6 6 C-8.40645416 17.49490727 -9 29.27249835 -9 41 C-9 41.33 -9 41.66 -9 42 C-10.65 42 -12.3 42 -14 42 C-14.02943124 38.20835009 -14.0469419 34.41673021 -14.0625 30.625 C-14.07087891 29.56410156 -14.07925781 28.50320312 -14.08789062 27.41015625 C-14.10592949 21.52948465 -13.89797063 15.78190013 -13.21655273 9.93896484 C-12.96300179 7.99389636 -12.96300179 7.99389636 -13 6 C-13 4.68 -13 3.36 -13 2 C-8.22169095 -0.91360308 -5.44893869 -1.19876651 0 0 Z " fill="#E8EFF4" transform="translate(48,55)"/>
<path d="M0 0 C0.66 4.29 1.32 8.58 2 13 C2.99 13.33 3.98 13.66 5 14 C5.66 13.67 6.32 13.34 7 13 C6.34 17.29 5.68 21.58 5 26 C4.34 26 3.68 26 3 26 C2.71125 25.38125 2.4225 24.7625 2.125 24.125 C1.06279958 21.86674235 1.06279958 21.86674235 -1 20 C-2.32 20 -3.64 20 -5 20 C-5 19.01 -5 18.02 -5 17 C-6.423125 17.2475 -6.423125 17.2475 -7.875 17.5 C-11 18 -11 18 -13 18 C-13.33 16.68 -13.66 15.36 -14 14 C-13.34 14.33 -12.68 14.66 -12 15 C-10.46331135 15.22467831 -8.92031946 15.40796805 -7.375 15.5625 C-6.55773438 15.64628906 -5.74046875 15.73007812 -4.8984375 15.81640625 C-4.27195312 15.87699219 -3.64546875 15.93757813 -3 16 C-3.33 13.69 -3.66 11.38 -4 9 C-8.65499974 8.18537505 -13.30976546 7.56606279 -18 7 C-18.33 5.02 -18.66 3.04 -19 1 C-16.02085163 0.83300069 -13.04168271 0.66638454 -10.0625 0.5 C-8.78729492 0.42845703 -8.78729492 0.42845703 -7.48632812 0.35546875 C-6.67744141 0.31035156 -5.86855469 0.26523438 -5.03515625 0.21875 C-4.2862915 0.17685547 -3.53742676 0.13496094 -2.76586914 0.09179688 C-1.84464901 0.0439082 -0.92246402 0 0 0 Z " fill="#F0BF9C" transform="translate(48,15)"/>
<path d="M0 0 C1.2380014 3.57644848 0.74926071 6.33694766 0 10 C0.66 10 1.32 10 2 10 C2 19.57 2 29.14 2 39 C2.66 39.33 3.32 39.66 4 40 C1 42 -2 44 -5 46 C-3.98308562 43.7314987 -3.26079546 42.21250001 -1.3125 40.625 C0.36937309 38.93121733 0.36937309 38.93121733 -0.3125 35.8125 C-0.539375 34.884375 -0.76625 33.95625 -1 33 C-1.94875 32.896875 -2.8975 32.79375 -3.875 32.6875 C-7 32 -7 32 -9 29 C-9.6746988 21.91566265 -9.6746988 21.91566265 -7.25 18.625 C-5.21528758 17.15548547 -3.25097471 16.08765585 -1 15 C-1.09539063 14.33613281 -1.19078125 13.67226562 -1.2890625 12.98828125 C-2.39015817 4.21792619 -2.39015817 4.21792619 0 0 Z " fill="#746562" transform="translate(26,66)"/>
<path d="M0 0 C6.40359897 0.36246787 6.40359897 0.36246787 8.8125 2.9375 C12.25048912 11.80389299 12.70556967 20.6250902 11 30 C8.66904697 34.61768745 8.66904697 34.61768745 6.25 36 C2.07036977 36 -1.57813448 34.12768645 -4.8125 31.5625 C-6 30 -6 30 -6.75390625 27.98046875 C-7.85553574 25.77216549 -7.85553574 25.77216549 -10.3828125 25.171875 C-11.28773437 25.03265625 -12.19265625 24.8934375 -13.125 24.75 C-14.03507812 24.60046875 -14.94515625 24.4509375 -15.8828125 24.296875 C-16.58148438 24.19890625 -17.28015625 24.1009375 -18 24 C-18 23.67 -18 23.34 -18 23 C-12.78020872 22.8200072 -8.92737019 23.02905192 -4 25 C-4 25.99 -4 26.98 -4 28 C-3.01 28.33 -2.02 28.66 -1 29 C-0.34 29.99 0.32 30.98 1 32 C3.56282742 32.72965366 3.56282742 32.72965366 6 33 C6.05850924 29.31256766 6.09376673 25.6252563 6.125 21.9375 C6.14175781 20.89916016 6.15851563 19.86082031 6.17578125 18.79101562 C6.21183286 13.11288716 5.92971166 8.35608946 4 3 C3.01 3 2.02 3 1 3 C0.67 2.01 0.34 1.02 0 0 Z " fill="#423C3C" transform="translate(70,110)"/>
<path d="M0 0 C1.9375 0.8125 1.9375 0.8125 4 2 C5.18823797 5.56471391 5.26274852 8.2558336 5 12 C3.6875 14.4375 3.6875 14.4375 2 16 C1.01 16 0.02 16 -1 16 C-1 16.66 -1 17.32 -1 18 C-1.763125 17.814375 -2.52625 17.62875 -3.3125 17.4375 C-6.08967375 16.77180827 -6.08967375 16.77180827 -9 18 C-9 18.66 -9 19.32 -9 20 C-8.34 20.33 -7.68 20.66 -7 21 C-7.99 21.66 -8.98 22.32 -10 23 C-10.99 22.34 -11.98 21.68 -13 21 C-12 18 -12 18 -10 16 C-10 15.01 -10 14.02 -10 13 C-9.34 13 -8.68 13 -8 13 C-7.92523438 12.39671875 -7.85046875 11.7934375 -7.7734375 11.171875 C-6.71228984 4.72176178 -6.71228984 4.72176178 -4.53125 2.51171875 C-2.875 1.4375 -2.875 1.4375 0 0 Z " fill="#EDBB9D" transform="translate(63,77)"/>
<path d="M0 0 C0.66 0 1.32 0 2 0 C2 1.98 2 3.96 2 6 C2.28875 5.195625 2.5775 4.39125 2.875 3.5625 C4 1 4 1 6 0 C5.67 13.2 5.34 26.4 5 40 C3.02 40.495 3.02 40.495 1 41 C1 31.43 1 21.86 1 12 C0.34 12 -0.32 12 -1 12 C-1.02687279 10.18757948 -1.04633715 8.37504767 -1.0625 6.5625 C-1.07410156 5.55316406 -1.08570312 4.54382813 -1.09765625 3.50390625 C-1 1 -1 1 0 0 Z " fill="#DEDEE0" transform="translate(27,64)"/>
<path d="M0 0 C17.9674088 0.0383919 17.9674088 0.0383919 22.15625 2.1328125 C22.15625 6.7528125 22.15625 11.3728125 22.15625 16.1328125 C21.82625 14.8128125 21.49625 13.4928125 21.15625 12.1328125 C20.49625 12.1328125 19.83625 12.1328125 19.15625 12.1328125 C19.48625 9.4928125 19.81625 6.8528125 20.15625 4.1328125 C19.49625 4.1328125 18.83625 4.1328125 18.15625 4.1328125 C17.82625 5.1228125 17.49625 6.1128125 17.15625 7.1328125 C14.19767591 7.18660476 11.24007279 7.22638343 8.28125 7.2578125 C7.01861328 7.28294922 7.01861328 7.28294922 5.73046875 7.30859375 C4.92480469 7.31503906 4.11914062 7.32148438 3.2890625 7.328125 C2.54543457 7.33859863 1.80180664 7.34907227 1.03564453 7.35986328 C-0.84375 7.1328125 -0.84375 7.1328125 -2.84375 5.1328125 C-3.53125 3.0703125 -3.53125 3.0703125 -3.84375 1.1328125 C-2.84375 0.1328125 -2.84375 0.1328125 0 0 Z " fill="#D28627" transform="translate(29.84375,8.8671875)"/>
<path d="M0 0 C0.33 0 0.66 0 1 0 C1 4.95 1 9.9 1 15 C1.99 14.67 2.98 14.34 4 14 C4.93423645 17.01031744 5.04449911 17.86650268 4 21 C3.87427141 22.93622036 3.77283927 24.87407947 3.6875 26.8125 C3.29505713 32.23475227 2.27101271 34.77933843 -1 39 C-1 40.32 -1 41.64 -1 43 C-1 43.99 -1 44.98 -1 46 C-2.65 45.34 -4.3 44.68 -6 44 C-6.33 44.99 -6.66 45.98 -7 47 C-7 45.68 -7 44.36 -7 43 C-8.093125 43.495 -9.18625 43.99 -10.3125 44.5 C-14 46 -14 46 -17 46 C-16.67 47.65 -16.34 49.3 -16 51 C-16.99 51 -17.98 51 -19 51 C-19.33 49.02 -19.66 47.04 -20 45 C-17.16512406 44.03017402 -14.34716058 43.08970969 -11.4453125 42.33984375 C-10.55585937 42.10394531 -9.66640625 41.86804687 -8.75 41.625 C-7.89921875 41.41101562 -7.0484375 41.19703125 -6.171875 40.9765625 C-3.86388539 40.17815941 -3.86388539 40.17815941 -2.76953125 38.0625 C-2.38861328 37.0415625 -2.38861328 37.0415625 -2 36 C-1.4740625 34.700625 -1.4740625 34.700625 -0.9375 33.375 C0.35349932 28.72740246 1 23.83895032 1 19 C0.360625 18.79375 -0.27875 18.5875 -0.9375 18.375 C-3 17 -3 17 -3.75 14.4375 C-4.0522851 10.28107984 -4.08329825 6.16491238 -4 2 C-3.34 2 -2.68 2 -2 2 C-2.33 4.64 -2.66 7.28 -3 10 C-2.34 10 -1.68 10 -1 10 C-0.67 6.7 -0.34 3.4 0 0 Z " fill="#796264" transform="translate(52,11)"/>
<path d="M0 0 C12.21 0 24.42 0 37 0 C37 1.32 37 2.64 37 4 C26.51333886 9.24333057 9.94898411 6.0370203 -1 4 C-0.67 2.68 -0.34 1.36 0 0 Z " fill="#403A31" transform="translate(5,147)"/>
<path d="M0 0 C0.66 0 1.32 0 2 0 C2 1.32 2 2.64 2 4 C4.64 4 7.28 4 10 4 C10 4.33 10 4.66 10 5 C8.02 5 6.04 5 4 5 C3.67 16.22 3.34 27.44 3 39 C4.32 38.34 5.64 37.68 7 37 C7.6993514 34.81458448 7.6993514 34.81458448 7.75 32.375 C7.80671875 31.55773437 7.8634375 30.74046875 7.921875 29.8984375 C7.94765625 29.27195312 7.9734375 28.64546875 8 28 C8.33 28 8.66 28 9 28 C9.02712153 29.916588 9.04645097 31.8332873 9.0625 33.75 C9.07410156 34.81734375 9.08570313 35.8846875 9.09765625 36.984375 C9.01510087 39.53368501 8.74617558 41.57933591 8 44 C6.35 43.67 4.7 43.34 3 43 C2.34 43.99 1.68 44.98 1 46 C1 33.13 1 20.26 1 7 C-0.42909641 10.57274103 -1.36738317 13.30973516 -2 17 C-2.33 17 -2.66 17 -3 17 C-3.14285714 9.57142857 -3.14285714 9.57142857 -2 6 C-2.66 5.67 -3.32 5.34 -4 5 C-3.01 5 -2.02 5 -1 5 C-0.67 3.35 -0.34 1.7 0 0 Z " fill="#9C9FA3" transform="translate(31,58)"/>
<path d="M0 0 C-0.185625 0.94875 -0.37125 1.8975 -0.5625 2.875 C-1.28686632 5.89868793 -1.28686632 5.89868793 0 8 C-3.18824568 9.59412284 -6.62896662 9.10174735 -10.125 9.0625 C-10.87910156 9.05798828 -11.63320313 9.05347656 -12.41015625 9.04882812 C-14.27347127 9.03703499 -16.13674555 9.01909942 -18 9 C-18.33 6.36 -18.66 3.72 -19 1 C-16.20837429 0.83262201 -13.41670379 0.66606598 -10.625 0.5 C-9.8309375 0.45230469 -9.036875 0.40460938 -8.21875 0.35546875 C-2.2265625 0 -2.2265625 0 0 0 Z " fill="#A9B0AF" transform="translate(41,139)"/>
<path d="M0 0 C0.763125 0.103125 1.52625 0.20625 2.3125 0.3125 C1.3225 0.9725 0.3325 1.6325 -0.6875 2.3125 C-0.378125 3.22 -0.06875 4.1275 0.25 5.0625 C1.0397263 7.47813338 1.74199297 9.84030285 2.3125 12.3125 C1.6525 12.3125 0.9925 12.3125 0.3125 12.3125 C0.6425 14.6225 0.9725 16.9325 1.3125 19.3125 C2.9625 18.9825 4.6125 18.6525 6.3125 18.3125 C6.126875 18.93125 5.94125 19.55 5.75 20.1875 C5.07563824 22.35410178 5.07563824 22.35410178 6.3125 24.3125 C8.32919827 25.44600534 8.32919827 25.44600534 10.3125 26.3125 C7.0625 26.625 7.0625 26.625 3.3125 26.3125 C1.125 24.0625 1.125 24.0625 -0.6875 21.3125 C-1.7703125 20.2296875 -1.7703125 20.2296875 -2.875 19.125 C-5.70768156 16.29231844 -5.86726044 14.40414887 -5.9375 10.5 C-5.87346567 5.58358671 -5.76340426 0.67016329 0 0 Z " fill="#EABAA5" transform="translate(25.6875,29.6875)"/>
<path d="M0 0 C2.39763185 2.39763185 2.34280586 3.33273498 2.625 6.625 C2.69976562 7.44226563 2.77453125 8.25953125 2.8515625 9.1015625 C2.92503906 10.04128906 2.92503906 10.04128906 3 11 C4.65 11 6.3 11 8 11 C8.08159574 15.16138263 7.98248524 18.9472484 7 23 C4.8125 23.3125 4.8125 23.3125 2 23 C-0.8125 20.8125 -0.8125 20.8125 -3 18 C-3.3125 15.1875 -3.3125 15.1875 -3 13 C-2.34 13 -1.68 13 -1 13 C-0.67 8.71 -0.34 4.42 0 0 Z " fill="#AEB4B1" transform="translate(69,120)"/>
<path d="M0 0 C0.2236337 1.41433206 0.42826476 2.83167618 0.625 4.25 C0.79902344 5.43335938 0.79902344 5.43335938 0.9765625 6.640625 C1.00319395 9.32152459 0.36592084 10.72694089 -1 13 C-1.66 11.02 -2.32 9.04 -3 7 C-7.95 7 -12.9 7 -18 7 C-18.33 5.02 -18.66 3.04 -19 1 C-16.02085163 0.83300069 -13.04168271 0.66638454 -10.0625 0.5 C-8.78729492 0.42845703 -8.78729492 0.42845703 -7.48632812 0.35546875 C-6.67744141 0.31035156 -5.86855469 0.26523438 -5.03515625 0.21875 C-4.2862915 0.17685547 -3.53742676 0.13496094 -2.76586914 0.09179688 C-1.84464901 0.0439082 -0.92246402 0 0 0 Z " fill="#EBAE7A" transform="translate(48,15)"/>
<path d="M0 0 C-0.33 3.96 -0.66 7.92 -1 12 C-2.32 11.67 -3.64 11.34 -5 11 C-4.67 9.35 -4.34 7.7 -4 6 C-4.66 6 -5.32 6 -6 6 C-6.33 6.66 -6.66 7.32 -7 8 C-8.98 7.34 -10.96 6.68 -13 6 C-13 4.68 -13 3.36 -13 2 C-8.22169095 -0.91360308 -5.44893869 -1.19876651 0 0 Z " fill="#C5AEA8" transform="translate(48,55)"/>
<path d="M0 0 C1.38548898 0.00218267 2.77099843 0.01722821 4.15625 0.04296875 C4.87586914 0.05158936 5.59548828 0.06020996 6.33691406 0.0690918 C20.70487729 0.30898719 20.70487729 0.30898719 24.90625 2.29296875 C27.54152805 5.21059802 27.08665585 8.20230206 26.90625 11.91796875 C26.88820312 12.61986328 26.87015625 13.32175781 26.8515625 14.04492188 C26.80451213 15.77402311 26.73276873 17.5024208 26.65625 19.23046875 C25.99625 19.23046875 25.33625 19.23046875 24.65625 19.23046875 C24.65625 14.28046875 24.65625 9.33046875 24.65625 4.23046875 C10.3523709 2.00949727 10.3523709 2.00949727 -3.34375 4.23046875 C-4.00375 3.57046875 -4.66375 2.91046875 -5.34375 2.23046875 C-3.34375 0.23046875 -3.34375 0.23046875 0 0 Z " fill="#47381F" transform="translate(28.34375,6.76953125)"/>
<path d="M0 0 C0 0.66 0 1.32 0 2 C2.31 2 4.62 2 7 2 C7 1.34 7 0.68 7 0 C7.66 0 8.32 0 9 0 C9 0.99 9 1.98 9 3 C6.36 3.33 3.72 3.66 1 4 C1 4.66 1 5.32 1 6 C3.97 6.495 3.97 6.495 7 7 C7 7.66 7 8.32 7 9 C7.66 9 8.32 9 9 9 C9 8.34 9 7.68 9 7 C10.65 6.67 12.3 6.34 14 6 C14.33 6.66 14.66 7.32 15 8 C14.67 8.66 14.34 9.32 14 10 C12.35 10 10.7 10 9 10 C9 10.66 9 11.32 9 12 C6.36 12.33 3.72 12.66 1 13 C0.48756887 10.43784435 -0.01376608 7.90134308 -0.375 5.3125 C-0.82459475 2.64135017 -0.82459475 2.64135017 -4 1 C-2 0 -2 0 0 0 Z " fill="#B07F5E" transform="translate(27,33)"/>
<path d="M0 0 C2.31 0 4.62 0 7 0 C6.38517411 2.9816071 5.75872174 5.95990672 5.125 8.9375 C4.95097656 9.78763672 4.77695312 10.63777344 4.59765625 11.51367188 C4.42363281 12.32255859 4.24960937 13.13144531 4.0703125 13.96484375 C3.91320801 14.7137085 3.75610352 15.46257324 3.59423828 16.23413086 C3 18 3 18 1 19 C-1.55698285 15.21332311 -1.03499684 11.5877666 -0.625 7.25 C-0.56828125 6.55261719 -0.5115625 5.85523437 -0.453125 5.13671875 C-0.31232128 3.42360688 -0.15754028 1.71165389 0 0 Z " fill="#E5E8F0" transform="translate(35,63)"/>
<path d="M0 0 C2.875 0.3125 2.875 0.3125 6 1 C8 4 8 4 7.625 6.6875 C7.41875 7.450625 7.2125 8.21375 7 9 C4.03 9 1.06 9 -2 9 C-2.66 7.68 -3.32 6.36 -4 5 C-2.68 3.35 -1.36 1.7 0 0 Z " fill="#A78566" transform="translate(38,22)"/>
<path d="M0 0 C20.47572816 -0.26213592 20.47572816 -0.26213592 25 2 C25 6.62 25 11.24 25 16 C24.67 14.68 24.34 13.36 24 12 C23.34 12 22.68 12 22 12 C22.33 9.36 22.66 6.72 23 4 C21.35 4 19.7 4 18 4 C18 3.34 18 2.68 18 2 C15.74971671 2.14139481 13.49977794 2.28828003 11.25 2.4375 C9.99703125 2.51871094 8.7440625 2.59992187 7.453125 2.68359375 C4.81682447 2.92515522 2.51962706 3.24283934 0 4 C0 2.68 0 1.36 0 0 Z " fill="#C39956" transform="translate(27,9)"/>
<path d="M0 0 C-0.495 0.45375 -0.99 0.9075 -1.5 1.375 C-3.22609337 2.87635519 -3.22609337 2.87635519 -3 5 C-2.34 5.33 -1.68 5.66 -1 6 C-2 9 -2 9 -5 11 C-5.99 11 -6.98 11 -8 11 C-8.33 10.01 -8.66 9.02 -9 8 C-9.66 8 -10.32 8 -11 8 C-10.67 6.35 -10.34 4.7 -10 3 C-10.66 3 -11.32 3 -12 3 C-11.67 2.01 -11.34 1.02 -11 0 C-3.375 -1.125 -3.375 -1.125 0 0 Z " fill="#E1C0B2" transform="translate(54,93)"/>
<path d="M0 0 C0.66 0 1.32 0 2 0 C2 1.98 2 3.96 2 6 C2.28875 5.195625 2.5775 4.39125 2.875 3.5625 C4 1 4 1 6 0 C6.10251672 5.12583611 6.03590199 9.94997778 5 15 C4.67 15 4.34 15 4 15 C3.67 16.98 3.34 18.96 3 21 C2.34 21 1.68 21 1 21 C1 18.03 1 15.06 1 12 C0.34 12 -0.32 12 -1 12 C-1.02687279 10.18757948 -1.04633715 8.37504767 -1.0625 6.5625 C-1.07410156 5.55316406 -1.08570312 4.54382813 -1.09765625 3.50390625 C-1 1 -1 1 0 0 Z " fill="#D9E0EF" transform="translate(27,64)"/>
<path d="M0 0 C1.65 0.33 3.3 0.66 5 1 C5 1.66 5 2.32 5 3 C3.68 3 2.36 3 1 3 C1 3.66 1 4.32 1 5 C1.804375 5.144375 2.60875 5.28875 3.4375 5.4375 C6 6 6 6 7 7 C7.04080783 8.99958364 7.04254356 11.00045254 7 13 C7.66 13.33 8.32 13.66 9 14 C3.375 16.125 3.375 16.125 0 15 C-0.6875 12.9375 -0.6875 12.9375 -1 11 C-0.34 11 0.32 11 1 11 C1 10.34 1 9.68 1 9 C0.34 9 -0.32 9 -1 9 C-0.67 6.03 -0.34 3.06 0 0 Z " fill="#A4836E" transform="translate(24,17)"/>
<path d="M0 0 C0.66 0 1.32 0 2 0 C3.04976964 3.14930893 3.10131595 5.38814456 3.0625 8.6875 C3.05347656 9.68136719 3.04445313 10.67523438 3.03515625 11.69921875 C3.02355469 12.45847656 3.01195313 13.21773437 3 14 C1.35 14 -0.3 14 -2 14 C-2.13277344 13.39671875 -2.26554687 12.7934375 -2.40234375 12.171875 C-2.57894531 11.37265625 -2.75554687 10.5734375 -2.9375 9.75 C-3.11152344 8.96109375 -3.28554687 8.1721875 -3.46484375 7.359375 C-3.947556 5.23121297 -4.46163178 3.11467158 -5 1 C-2.525 1.495 -2.525 1.495 0 2 C0 1.34 0 0.68 0 0 Z " fill="#E4E7E4" transform="translate(74,117)"/>
<path d="M0 0 C3.30777747 4.9616662 3.15813449 9.62689816 3.1875 15.5 C3.20167969 16.7890625 3.21585937 18.078125 3.23046875 19.40625 C3.0146557 22.77147046 2.46189261 24.99531954 1 28 C0.01 28 -0.98 28 -2 28 C-1.84152588 27.28884033 -1.68305176 26.57768066 -1.51977539 25.8449707 C-1.00385198 23.02108366 -0.79569313 20.34701008 -0.68359375 17.48046875 C-0.64169922 16.45888672 -0.59980469 15.43730469 -0.55664062 14.38476562 C-0.51732422 13.32966797 -0.47800781 12.27457031 -0.4375 11.1875 C-0.39431641 10.11306641 -0.35113281 9.03863281 -0.30664062 7.93164062 C-0.20089017 5.28787918 -0.09879767 2.6440289 0 0 Z " fill="#2B2823" transform="translate(77,115)"/>
<path d="M0 0 C1.98 0 3.96 0 6 0 C6 0.99 6 1.98 6 3 C5.34 3 4.68 3 4 3 C4 4.32 4 5.64 4 7 C2.35 7.33 0.7 7.66 -1 8 C-1 8.66 -1 9.32 -1 10 C-1.66 10 -2.32 10 -3 10 C-3 9.34 -3 8.68 -3 8 C-5.97 7.505 -5.97 7.505 -9 7 C-9 6.34 -9 5.68 -9 5 C-6.36 4.67 -3.72 4.34 -1 4 C-0.67 2.68 -0.34 1.36 0 0 Z " fill="#D4A88E" transform="translate(37,32)"/>
<path d="M0 0 C1 2 2 4 3 6 C5.02463255 6.65213292 5.02463255 6.65213292 7 7 C7 7.66 7 8.32 7 9 C7.99 9 8.98 9 10 9 C10.66 10.32 11.32 11.64 12 13 C11.34 13 10.68 13 10 13 C10 13.66 10 14.32 10 15 C7.6875 14.875 7.6875 14.875 5 14 C4.525625 13.01 4.05125 12.02 3.5625 11 C3.046875 10.01 2.53125 9.02 2 8 C-1.08961458 7.02525184 -1.08961458 7.02525184 -4 7 C-3.34 5.68 -2.68 4.36 -2 3 C-1.34 3 -0.68 3 0 3 C0 2.01 0 1.02 0 0 Z " fill="#9FA0A0" transform="translate(64,104)"/>
<path d="M0 0 C0.99 0.33 1.98 0.66 3 1 C4.19754817 4.59264452 4.33094958 7.22717474 4 11 C2 13.4375 2 13.4375 0 15 C0 14.01 0 13.02 0 12 C-1.98 12.33 -3.96 12.66 -6 13 C-5.34 10.36 -4.68 7.72 -4 5 C-3.195625 4.87625 -2.39125 4.7525 -1.5625 4.625 C-0.716875 4.41875 0.12875 4.2125 1 4 C1.33 3.34 1.66 2.68 2 2 C1.01 1.67 0.02 1.34 -1 1 C-0.67 0.67 -0.34 0.34 0 0 Z " fill="#E0AB8B" transform="translate(64,78)"/>
<path d="M0 0 C5.61 0 11.22 0 17 0 C17 2.62113708 16.68707555 4.50935112 16 7 C12.95613276 7.08226668 10.92824652 6.97608217 8 6 C8 5.34 8 4.68 8 4 C6.865625 3.71125 5.73125 3.4225 4.5625 3.125 C3.386875 2.75375 2.21125 2.3825 1 2 C0.67 1.34 0.34 0.68 0 0 Z " fill="#EDBB9D" transform="translate(30,45)"/>
<path d="M0 0 C0.33 0.66 0.66 1.32 1 2 C1.54527344 1.83242187 2.09054688 1.66484375 2.65234375 1.4921875 C8.68018849 -0.13584578 13.05631229 0.17333475 19 2 C18.67 3.32 18.34 4.64 18 6 C15.29060578 5.71638858 12.58277339 5.4233895 9.875 5.125 C9.11445312 5.04636719 8.35390625 4.96773437 7.5703125 4.88671875 C3.14040279 4.39026335 -0.80211971 3.59599921 -5 2 C-5 1.67 -5 1.34 -5 1 C-3.35 0.67 -1.7 0.34 0 0 Z " fill="#202330" transform="translate(48,129)"/>
<path d="M0 0 C3.63 0 7.26 0 11 0 C11 1.32 11 2.64 11 4 C10.01 4.495 10.01 4.495 9 5 C9.33 5.66 9.66 6.32 10 7 C7.03 7 4.06 7 1 7 C0.67 4.69 0.34 2.38 0 0 Z " fill="#E1E8E7" transform="translate(24,141)"/>
<path d="M0 0 C0.33 0 0.66 0 1 0 C1 4.95 1 9.9 1 15 C1.99 14.67 2.98 14.34 4 14 C5.125 17.75 5.125 17.75 4 20 C3.34 19.67 2.68 19.34 2 19 C0.67139075 18.64830932 -0.66158328 18.31229724 -2 18 C-3.86783046 12.51324804 -4.2358396 7.77807024 -4 2 C-3.34 2 -2.68 2 -2 2 C-2.33 4.64 -2.66 7.28 -3 10 C-2.34 10 -1.68 10 -1 10 C-0.67 6.7 -0.34 3.4 0 0 Z " fill="#A2754F" transform="translate(52,11)"/>
<path d="M0 0 C1.65 0 3.3 0 5 0 C5.33 3.63 5.66 7.26 6 11 C5.34 11 4.68 11 4 11 C3.67 10.34 3.34 9.68 3 9 C0.47266765 8.34444881 0.47266765 8.34444881 -2 8 C-1.125 1.125 -1.125 1.125 0 0 Z " fill="#BDADAB" transform="translate(21,85)"/>
<path d="M0 0 C1.2380014 3.57644848 0.74926071 6.33694766 0 10 C0.66 10 1.32 10 2 10 C2 12.64 2 15.28 2 18 C0.865625 18.268125 -0.26875 18.53625 -1.4375 18.8125 C-2.613125 19.204375 -3.78875 19.59625 -5 20 C-5.33 20.99 -5.66 21.98 -6 23 C-6.99 23 -7.98 23 -9 23 C-7.9802693 19.22699642 -7.34127338 18.19793856 -3.875 16.1875 C-2.92625 15.795625 -1.9775 15.40375 -1 15 C-1.09539063 14.33613281 -1.19078125 13.67226562 -1.2890625 12.98828125 C-2.39015817 4.21792619 -2.39015817 4.21792619 0 0 Z " fill="#758286" transform="translate(26,66)"/>
<path d="M0 0 C0.66 0.33 1.32 0.66 2 1 C1.88541307 2.43836751 1.75790884 3.87570966 1.625 5.3125 C1.55539063 6.11300781 1.48578125 6.91351563 1.4140625 7.73828125 C1 10 1 10 -1 13 C-3.475 12.01 -3.475 12.01 -6 11 C-6.33 16.94 -6.66 22.88 -7 29 C-7.33 29 -7.66 29 -8 29 C-8.05410136 25.93726169 -8.09372225 22.87548548 -8.125 19.8125 C-8.15013672 18.51602539 -8.15013672 18.51602539 -8.17578125 17.19335938 C-8.21038233 12.67791897 -8.15567916 9.09918517 -6 5 C-5.34 5 -4.68 5 -4 5 C-4.33 6.65 -4.66 8.3 -5 10 C-3.68 10.33 -2.36 10.66 -1 11 C-0.67 7.37 -0.34 3.74 0 0 Z " fill="#878D98" transform="translate(48,56)"/>
<path d="M0 0 C1.5 1.1875 1.5 1.1875 3 3 C3.1875 5.6875 3.1875 5.6875 3 8 C2.67 7.01 2.34 6.02 2 5 C0.35 5.33 -1.3 5.66 -3 6 C-2.938125 7.1446875 -2.938125 7.1446875 -2.875 8.3125 C-3 11 -3 11 -5 14 C-7.125 14.6875 -7.125 14.6875 -9 15 C-8.690625 14.29875 -8.38125 13.5975 -8.0625 12.875 C-6.86403853 10.02878742 -6.86403853 10.02878742 -6.75 6.9375 C-6 4 -6 4 -2.9375 1.625 C-1.968125 1.08875 -0.99875 0.5525 0 0 Z " fill="#E4C3AB" transform="translate(63,77)"/>
<path d="M0 0 C3 3.875 3 3.875 3 5 C0.69 5.33 -1.62 5.66 -4 6 C-4.19335938 6.63808594 -4.38671875 7.27617187 -4.5859375 7.93359375 C-4.97652344 9.17302734 -4.97652344 9.17302734 -5.375 10.4375 C-5.75785156 11.67306641 -5.75785156 11.67306641 -6.1484375 12.93359375 C-7 15 -7 15 -9 16 C-8.24170616 7.0521327 -8.24170616 7.0521327 -5 3 C-2.3125 1.1875 -2.3125 1.1875 0 0 Z " fill="#7D7672" transform="translate(12,133)"/>
<path d="M0 0 C6.17262806 4.78693604 12.53770607 10.63537137 14.66015625 18.421875 C14.9375 20.625 14.9375 20.625 15 24 C14.01 23.34 13.02 22.68 12 22 C12.01546875 21.23816406 12.0309375 20.47632812 12.046875 19.69140625 C11.98310473 16.02992998 10.58894695 14.69899394 8.25 11.9375 C7.55390625 11.10089844 6.8578125 10.26429687 6.140625 9.40234375 C4.04737347 6.98032648 4.04737347 6.98032648 1.734375 4.87890625 C0 3 0 3 0 0 Z " fill="#697E8E" transform="translate(51,55)"/>
<path d="M0 0 C1.98 0.66 3.96 1.32 6 2 C4.53361938 5.42155477 3.00590649 7.76483876 0 10 C-2.99158416 10.62518425 -5.94980844 10.86964993 -9 11 C-8 8 -8 8 -6.15234375 7.05078125 C-5.05599609 6.68533203 -5.05599609 6.68533203 -3.9375 6.3125 C-3.20402344 6.06113281 -2.47054687 5.80976562 -1.71484375 5.55078125 C-0.86599609 5.27814453 -0.86599609 5.27814453 0 5 C0 3.35 0 1.7 0 0 Z " fill="#D7CFD4" transform="translate(50,82)"/>
<path d="M0 0 C0.66 0 1.32 0 2 0 C2.33 3.3 2.66 6.6 3 10 C0.69 9.34 -1.62 8.68 -4 8 C-4.625 6.125 -4.625 6.125 -5 4 C-4.34 3.34 -3.68 2.68 -3 2 C-2.01 2 -1.02 2 0 2 C0 1.34 0 0.68 0 0 Z " fill="#EFDBCE" transform="translate(60,96)"/>
<path d="M0 0 C6.75 5.75 6.75 5.75 9 8 C9 8.99 9 9.98 9 11 C6.49642808 9.74821404 4.93566621 8.00018842 3 6 C2.01 7.98 1.02 9.96 0 12 C-0.99 12 -1.98 12 -3 12 C-2.01 8.04 -1.02 4.08 0 0 Z " fill="#CADFED" transform="translate(50,57)"/>
<path d="M0 0 C5.21979128 -0.1799928 9.07262981 0.02905192 14 2 C14 2.99 14 3.98 14 5 C14.99 5.33 15.98 5.66 17 6 C18.6875 9.0625 18.6875 9.0625 20 12 C16.63088927 10.81625839 14.26330393 9.80218582 12 7 C11.74863281 6.33226562 11.49726562 5.66453125 11.23828125 4.9765625 C10.14398137 2.77132279 10.14398137 2.77132279 7.6171875 2.171875 C6.25980469 1.96304688 6.25980469 1.96304688 4.875 1.75 C3.96492188 1.60046875 3.05484375 1.4509375 2.1171875 1.296875 C1.06917969 1.14992187 1.06917969 1.14992187 0 1 C0 0.67 0 0.34 0 0 Z " fill="#797870" transform="translate(52,133)"/>
<path d="M0 0 C0.763125 0.103125 1.52625 0.20625 2.3125 0.3125 C1.3225 0.9725 0.3325 1.6325 -0.6875 2.3125 C-0.6875 2.9725 -0.6875 3.6325 -0.6875 4.3125 C-1.6775 4.3125 -2.6675 4.3125 -3.6875 4.3125 C-3.03400367 11.86288422 -3.03400367 11.86288422 -1.6875 19.3125 C-3.6875 17.9375 -3.6875 17.9375 -5.6875 15.3125 C-6.43304572 10.65872512 -6.17321313 6.59069245 -4.5 2.1875 C-2.6875 0.3125 -2.6875 0.3125 0 0 Z " fill="#E8CBB7" transform="translate(25.6875,29.6875)"/>
<path d="M0 0 C2.39763185 2.39763185 2.34280586 3.33273498 2.625 6.625 C2.69976562 7.44226563 2.77453125 8.25953125 2.8515625 9.1015625 C2.90054688 9.72804687 2.94953125 10.35453125 3 11 C4.65 11 6.3 11 8 11 C8 13.31 8 15.62 8 18 C7.67 18 7.34 18 7 18 C7 16.35 7 14.7 7 13 C4.36 12.67 1.72 12.34 -1 12 C-0.67 8.04 -0.34 4.08 0 0 Z " fill="#899295" transform="translate(69,120)"/>
<path d="M0 0 C5.41538462 -0.36923077 5.41538462 -0.36923077 8.375 1.5 C8.91125 1.995 9.4475 2.49 10 3 C8.3125 4.5625 8.3125 4.5625 6 6 C3.25 5.6875 3.25 5.6875 1 5 C0.67 3.35 0.34 1.7 0 0 Z " fill="#D2DADC" transform="translate(51,74)"/>
<path d="M0 0 C0.66 0.33 1.32 0.66 2 1 C1.34 1.66 0.68 2.32 0 3 C0.33 3.99 0.66 4.98 1 6 C0.34 6 -0.32 6 -1 6 C-1 5.34 -1 4.68 -1 4 C-4.9429464 5.46596725 -6.01834588 7.37308275 -7.75 11.125 C-8.17796875 12.03507812 -8.6059375 12.94515625 -9.046875 13.8828125 C-9.36140625 14.58148438 -9.6759375 15.28015625 -10 16 C-11.24359926 12.26920222 -11.24851969 10.74555907 -10 7 C-7.00699497 4.16452155 -3.68690027 1.84345014 0 0 Z " fill="#0C1121" transform="translate(30,105)"/>
<path d="M0 0 C2.31323995 3.46985992 2.03975162 4.98288704 1.42578125 8.9921875 C0.89999623 11.47157739 0.07459989 13.70752024 -1 16 C-1.33 16 -1.66 16 -2 16 C-2.05449838 14.27119018 -2.09301688 12.54187288 -2.125 10.8125 C-2.14820313 9.84957031 -2.17140625 8.88664062 -2.1953125 7.89453125 C-1.9913544 4.87187222 -1.26874632 2.73230015 0 0 Z " fill="#D8E1EB" transform="translate(38,66)"/>
<path d="M0 0 C0 1.32 0 2.64 0 4 C-8.25 4 -16.5 4 -25 4 C-25 3.67 -25 3.34 -25 3 C-18.4 3 -11.8 3 -5 3 C-5 2.34 -5 1.68 -5 1 C-3 0 -3 0 0 0 Z " fill="#201913" transform="translate(42,147)"/>
<path d="M0 0 C0.53625 0.226875 1.0725 0.45375 1.625 0.6875 C0.635 2.1725 0.635 2.1725 -0.375 3.6875 C-0.705 3.3575 -1.035 3.0275 -1.375 2.6875 C-1.705 4.0075 -2.035 5.3275 -2.375 6.6875 C-4.355 6.6875 -6.335 6.6875 -8.375 6.6875 C-8.375 5.3675 -8.375 4.0475 -8.375 2.6875 C-2.95961538 -0.38942308 -2.95961538 -0.38942308 0 0 Z " fill="#E9C1B1" transform="translate(43.375,54.3125)"/>
<path d="M0 0 C-0.33 0.99 -0.66 1.98 -1 3 C-2.65 3 -4.3 3 -6 3 C-6 3.66 -6 4.32 -6 5 C-7.65 4.67 -9.3 4.34 -11 4 C-11 2.68 -11 1.36 -11 0 C-10.01 0 -9.02 0 -8 0 C-8 0.66 -8 1.32 -8 2 C-7.34 2 -6.68 2 -6 2 C-6 1.34 -6 0.68 -6 0 C-3 -1 -3 -1 0 0 Z " fill="#3D190D" transform="translate(42,40)"/>
<path d="M0 0 C0 2.77996107 -0.21297929 5.42492567 -0.5 8.1875 C-0.5928125 9.08855469 -0.685625 9.98960938 -0.78125 10.91796875 C-0.88953125 11.94857422 -0.88953125 11.94857422 -1 13 C-1.66 13 -2.32 13 -3 13 C-3 10.36 -3 7.72 -3 5 C-3.99 4.67 -4.98 4.34 -6 4 C-6 3.01 -6 2.02 -6 1 C-4.7934375 1.0309375 -4.7934375 1.0309375 -3.5625 1.0625 C-1.06645115 1.29633621 -1.06645115 1.29633621 0 0 Z " fill="#ECBAB3" transform="translate(54,28)"/>
<path d="M0 0 C2.1519437 3.22791555 2.20086443 4.28400809 2 8 C-0.60582371 8.93065133 -1.64198224 9.14917407 -4.25 8.0625 C-4.8275 7.711875 -5.405 7.36125 -6 7 C-5.071875 6.1028125 -5.071875 6.1028125 -4.125 5.1875 C-1.86323046 2.99188856 -1.86323046 2.99188856 0 0 Z " fill="#2A353E" transform="translate(38,131)"/>
<path d="M0 0 C0.33 0 0.66 0 1 0 C0.91249445 2.22988284 0.80430939 4.45896005 0.6875 6.6875 C0.62949219 7.92886719 0.57148437 9.17023438 0.51171875 10.44921875 C-0.01353544 14.09392151 -0.80569431 16.07967713 -3 19 C-5 20 -5 20 -7 20 C-8.75 18.5625 -8.75 18.5625 -10 17 C-8.02 17 -6.04 17 -4 17 C-2.34315863 13.2477416 -1.49791837 9.73646939 -0.875 5.6875 C-0.70742187 4.61886719 -0.53984375 3.55023438 -0.3671875 2.44921875 C-0.24601562 1.64097656 -0.12484375 0.83273438 0 0 Z " fill="#5E5750" transform="translate(81,126)"/>
<path d="M0 0 C0.33 0 0.66 0 1 0 C1.02712153 1.916588 1.04645097 3.8332873 1.0625 5.75 C1.07410156 6.81734375 1.08570313 7.8846875 1.09765625 8.984375 C1.01510087 11.53368501 0.74617558 13.57933591 0 16 C-1.32 16 -2.64 16 -4 16 C-4.125 11.25 -4.125 11.25 -3 9 C-2.34 9 -1.68 9 -1 9 C-0.67 6.03 -0.34 3.06 0 0 Z " fill="#B6B4B2" transform="translate(39,86)"/>
<path d="M0 0 C1 2 2 4 3 6 C5.02463255 6.65213292 5.02463255 6.65213292 7 7 C7 7.66 7 8.32 7 9 C6.01 9 5.02 9 4 9 C3.67 9.66 3.34 10.32 3 11 C2.67 10.01 2.34 9.02 2 8 C-0.97 7.505 -0.97 7.505 -4 7 C-3.34 5.68 -2.68 4.36 -2 3 C-1.34 3 -0.68 3 0 3 C0 2.01 0 1.02 0 0 Z " fill="#8B888F" transform="translate(64,104)"/>
<path d="M0 0 C0.99 0 1.98 0 3 0 C3 3.63 3 7.26 3 11 C1.35 11 -0.3 11 -2 11 C-1.47916667 9.01432292 -0.95833333 7.02864583 -0.4375 5.04296875 C0.1047007 2.85929991 0.1047007 2.85929991 0 0 Z " fill="#DCDDDA" transform="translate(74,120)"/>
<path d="M0 0 C0.66 0.99 1.32 1.98 2 3 C1.67 3.99 1.34 4.98 1 6 C2.32 5.67 3.64 5.34 5 5 C5 5.66 5 6.32 5 7 C6.32 7.33 7.64 7.66 9 8 C2.375 9.25 2.375 9.25 -1 7 C-1.6875 3.875 -1.6875 3.875 -2 1 C-1.34 0.67 -0.68 0.34 0 0 Z " fill="#393637" transform="translate(40,97)"/>
<path d="M0 0 C0.66 0 1.32 0 2 0 C2 6.6 2 13.2 2 20 C1.67 20 1.34 20 1 20 C1 17.36 1 14.72 1 12 C0.34 12 -0.32 12 -1 12 C-1.02687279 10.18757948 -1.04633715 8.37504767 -1.0625 6.5625 C-1.07410156 5.55316406 -1.08570312 4.54382813 -1.09765625 3.50390625 C-1 1 -1 1 0 0 Z " fill="#CCD9E0" transform="translate(27,64)"/>
<path d="M0 0 C2.31 0.66 4.62 1.32 7 2 C7 5.96 7 9.92 7 14 C6.67 12.68 6.34 11.36 6 10 C5.34 10 4.68 10 4 10 C4.33 7.36 4.66 4.72 5 2 C3.35 2 1.7 2 0 2 C0 1.34 0 0.68 0 0 Z " fill="#D29756" transform="translate(45,11)"/>
<path d="M0 0 C0.66 0 1.32 0 2 0 C2.22226864 1.76913824 2.42733873 3.54044371 2.625 5.3125 C2.74101563 6.29863281 2.85703125 7.28476563 2.9765625 8.30078125 C3 11 3 11 1 14 C1 13.34 1 12.68 1 12 C0.34 11.67 -0.32 11.34 -1 11 C-0.67 7.37 -0.34 3.74 0 0 Z " fill="#293A4A" transform="translate(66,119)"/>
<path d="M0 0 C0.66 0.66 1.32 1.32 2 2 C1.67 2.99 1.34 3.98 1 5 C2.65 5 4.3 5 6 5 C5.01 5.99 4.02 6.98 3 8 C1.02 7.34 -0.96 6.68 -3 6 C-1.125 1.125 -1.125 1.125 0 0 Z " fill="#2D3340" transform="translate(18,132)"/>
<path d="M0 0 C2.33179059 4.14540549 3.10632957 9.26833417 3 14 C2.01 15.485 2.01 15.485 1 17 C0.86722656 16.08476562 0.73445313 15.16953125 0.59765625 14.2265625 C0.42105469 13.03804687 0.24445313 11.84953125 0.0625 10.625 C-0.11152344 9.44164063 -0.28554687 8.25828125 -0.46484375 7.0390625 C-0.83462786 4.09297619 -0.83462786 4.09297619 -2 2 C-4.52733235 1.34444881 -4.52733235 1.34444881 -7 1 C-3.375 -1.125 -3.375 -1.125 0 0 Z " fill="#18212D" transform="translate(67,112)"/>
<path d="M0 0 C0.33 0 0.66 0 1 0 C1.56098338 3.71651489 2 7.24177652 2 11 C0.35 11 -1.3 11 -3 11 C-3 9.35 -3 7.7 -3 6 C-2.01 6 -1.02 6 0 6 C-0.2784375 4.7934375 -0.2784375 4.7934375 -0.5625 3.5625 C-0.706875 2.716875 -0.85125 1.87125 -1 1 C-0.67 0.67 -0.34 0.34 0 0 Z " fill="#EDEAEA" transform="translate(37,86)"/>
<path d="M0 0 C0.33 0.66 0.66 1.32 1 2 C-4.625 5 -4.625 5 -8 5 C-7.67 6.65 -7.34 8.3 -7 10 C-7.99 10 -8.98 10 -10 10 C-10.33 8.02 -10.66 6.04 -11 4 C-10.113125 3.71125 -9.22625 3.4225 -8.3125 3.125 C-5.49617576 2.16851252 -2.74916844 1.13201054 0 0 Z " fill="#9C7463" transform="translate(43,52)"/>
<path d="M0 0 C1.98 0.99 1.98 0.99 4 2 C3.67 2.33 3.34 2.66 3 3 C6.465 4.485 6.465 4.485 10 6 C9.01 6.66 8.02 7.32 7 8 C4.3125 7.125 4.3125 7.125 2 6 C1.67 6.66 1.34 7.32 1 8 C0.02391783 5.07175348 -0.08226668 3.04386724 0 0 Z " fill="#E0A88D" transform="translate(26,42)"/>
<path d="M0 0 C4.62 0 9.24 0 14 0 C13.67 0.66 13.34 1.32 13 2 C10.27734375 2.4140625 10.27734375 2.4140625 6.9375 2.625 C5.83277344 2.69976563 4.72804688 2.77453125 3.58984375 2.8515625 C2.73519531 2.90054687 1.88054688 2.94953125 1 3 C0.67 2.01 0.34 1.02 0 0 Z " fill="#F6B87B" transform="translate(29,16)"/>
<path d="M0 0 C5.61 0.33 11.22 0.66 17 1 C17 1.33 17 1.66 17 2 C14.72979256 2.19493195 12.45879711 2.38070418 10.1875 2.5625 C8.92292969 2.66691406 7.65835937 2.77132812 6.35546875 2.87890625 C3 3 3 3 0 2 C0 1.34 0 0.68 0 0 Z " fill="#3B3C32" transform="translate(6,147)"/>
<path d="M0 0 C0.33 0 0.66 0 1 0 C0.67 3.96 0.34 7.92 0 12 C-1.32 11.67 -2.64 11.34 -4 11 C-3.21681311 7.08406554 -1.60820142 3.63593365 0 0 Z " fill="#DEDFE7" transform="translate(47,55)"/>
<path d="M0 0 C3.875 1.75 3.875 1.75 5 4 C4.01 4 3.02 4 2 4 C1.67 5.65 1.34 7.3 1 9 C0.34 9 -0.32 9 -1 9 C-1.09765625 2.84765625 -1.09765625 2.84765625 -1 1 C-0.67 0.67 -0.34 0.34 0 0 Z " fill="#615E3A" transform="translate(23,10)"/>
<path d="M0 0 C1.65 0 3.3 0 5 0 C5 1.98 5 3.96 5 6 C3.35 6 1.7 6 0 6 C0 4.02 0 2.04 0 0 Z " fill="#A7A9A0" transform="translate(71,137)"/>
<path d="M0 0 C0.66 0.33 1.32 0.66 2 1 C2 4.3 2 7.6 2 11 C1.34 10.01 0.68 9.02 0 8 C-2.05003955 6.80767387 -2.05003955 6.80767387 -4 6 C-3.01 6 -2.02 6 -1 6 C-0.67 4.02 -0.34 2.04 0 0 Z " fill="#6E6864" transform="translate(41,139)"/>
<path d="M0 0 C0.99 0 1.98 0 3 0 C3.28875 0.969375 3.5775 1.93875 3.875 2.9375 C4.64214682 6.10664203 4.64214682 6.10664203 7 7 C5.02 7 3.04 7 1 7 C0.67 4.69 0.34 2.38 0 0 Z " fill="#EAEFE9" transform="translate(24,141)"/>
<path d="M0 0 C0.33 0 0.66 0 1 0 C1.55353075 10.55808656 1.55353075 10.55808656 -2 15 C-2.66 14.67 -3.32 14.34 -4 14 C-3.79503906 13.32453125 -3.59007812 12.6490625 -3.37890625 11.953125 C-3.10949219 11.06109375 -2.84007812 10.1690625 -2.5625 9.25 C-2.16224609 7.92742187 -2.16224609 7.92742187 -1.75390625 6.578125 C-1.11531506 4.39434165 -0.53224167 2.21164502 0 0 Z " fill="#0D0D1A" transform="translate(18,122)"/>
<path d="M0 0 C0.66 0.33 1.32 0.66 2 1 C2 4.10551666 1.4606285 5.35261084 0 8 C-2.31 7.67 -4.62 7.34 -7 7 C-6.67 6.34 -6.34 5.68 -6 5 C-3.4375 4.375 -3.4375 4.375 -1 4 C-0.67 2.68 -0.34 1.36 0 0 Z " fill="#142638" transform="translate(36,128)"/>
<path d="M0 0 C0 0.99 0 1.98 0 3 C-5.75 4.125 -5.75 4.125 -8 3 C-8 2.34 -8 1.68 -8 1 C-5.07175348 0.02391783 -3.04386724 -0.08226668 0 0 Z " fill="#EEC1A4" transform="translate(36,36)"/>
<path d="M0 0 C2.97 0.495 2.97 0.495 6 1 C6 1.99 6 2.98 6 4 C3.36 3.67 0.72 3.34 -2 3 C-1.34 2.01 -0.68 1.02 0 0 Z " fill="#FAE6C7" transform="translate(38,24)"/>
<path d="M0 0 C-0.33 1.98 -0.66 3.96 -1 6 C-2.32 6 -3.64 6 -5 6 C-4.625 3.5625 -4.625 3.5625 -4 1 C-2 0 -2 0 0 0 Z " fill="#989A9B" transform="translate(41,139)"/>
<path d="M0 0 C0.66 0.99 1.32 1.98 2 3 C1.67 3.99 1.34 4.98 1 6 C-0.98 5.01 -2.96 4.02 -5 3 C-5 2.34 -5 1.68 -5 1 C-3 0 -3 0 0 0 Z " fill="#DDD4DB" transform="translate(60,100)"/>
<path d="M0 0 C2.78117672 1.0197648 3.81833102 1.66391238 5.25 4.3125 C6.00511726 7.01833686 6.1595955 9.20707882 6 12 C5.01 11.34 4.02 10.68 3 10 C3 8.33333333 3 6.66666667 3 5 C1.59240659 2.23558031 1.59240659 2.23558031 0 0 Z " fill="#717279" transform="translate(60,67)"/>
<path d="M0 0 C2.475 0.99 2.475 0.99 5 2 C5 3.32 5 4.64 5 6 C5.66 6.33 6.32 6.66 7 7 C5.35 7.33 3.7 7.66 2 8 C1.855625 7.236875 1.71125 6.47375 1.5625 5.6875 C1.0367406 2.91827092 1.0367406 2.91827092 0 0 Z " fill="#A5735D" transform="translate(26,38)"/>
<path d="M0 0 C0.66 0.33 1.32 0.66 2 1 C1.67 2.32 1.34 3.64 1 5 C1.99 5.66 2.98 6.32 4 7 C1.69 6.67 -0.62 6.34 -3 6 C-2.625 3.5625 -2.625 3.5625 -2 1 C-1.34 0.67 -0.68 0.34 0 0 Z " fill="#3C4352" transform="translate(60,105)"/>
<path d="M0 0 C0.99 0 1.98 0 3 0 C2.67 1.65 2.34 3.3 2 5 C2.66 5 3.32 5 4 5 C4.33 4.34 4.66 3.68 5 3 C5 4.65 5 6.3 5 8 C4.67 7.34 4.34 6.68 4 6 C2.68 6.33 1.36 6.66 0 7 C0 4.69 0 2.38 0 0 Z " fill="#AF9F93" transform="translate(41,96)"/>
<path d="M0 0 C0.66 0 1.32 0 2 0 C2 0.66 2 1.32 2 2 C2.66 2.33 3.32 2.66 4 3 C3.67 3.99 3.34 4.98 3 6 C3.66 6.33 4.32 6.66 5 7 C3.68 7.33 2.36 7.66 1 8 C0.26919734 6.02253397 -0.39421747 4.01927511 -1 2 C-0.67 1.34 -0.34 0.68 0 0 Z " fill="#EEC0A4" transform="translate(41,35)"/>
<path d="M0 0 C1.65 0.33 3.3 0.66 5 1 C5.33 1.99 5.66 2.98 6 4 C3.69 3.67 1.38 3.34 -1 3 C-0.67 2.01 -0.34 1.02 0 0 Z " fill="#EDDECF" transform="translate(24,23)"/>
<path d="M0 0 C1.65 0 3.3 0 5 0 C4.01 3.96 3.02 7.92 2 12 C1.67 12 1.34 12 1 12 C0.85714286 4.57142857 0.85714286 4.57142857 2 1 C1.34 0.67 0.68 0.34 0 0 Z " fill="#8A929D" transform="translate(27,63)"/>
<path d="M0 0 C2.475 0.99 2.475 0.99 5 2 C4.67 3.32 4.34 4.64 4 6 C3.01 6 2.02 6 1 6 C0.67 4.02 0.34 2.04 0 0 Z " fill="#E0B49A" transform="translate(22,34)"/>
<path d="M0 0 C2.64 0.66 5.28 1.32 8 2 C8 2.33 8 2.66 8 3 C6.02 3 4.04 3 2 3 C2 4.65 2 6.3 2 8 C1.67 8 1.34 8 1 8 C0.67 5.36 0.34 2.72 0 0 Z " fill="#675D68" transform="translate(41,130)"/>
<path d="M0 0 C1.98 0 3.96 0 6 0 C6 1.32 6 2.64 6 4 C4.35 3.67 2.7 3.34 1 3 C0.67 2.01 0.34 1.02 0 0 Z " fill="#C79488" transform="translate(18,95)"/>
<path d="M0 0 C1.4540625 0.0309375 1.4540625 0.0309375 2.9375 0.0625 C2.9375 1.0525 2.9375 2.0425 2.9375 3.0625 C2.2775 3.0625 1.6175 3.0625 0.9375 3.0625 C0.9375 3.7225 0.9375 4.3825 0.9375 5.0625 C0.2775 5.0625 -0.3825 5.0625 -1.0625 5.0625 C-1.0625 4.0725 -1.0625 3.0825 -1.0625 2.0625 C-2.0525 1.7325 -3.0425 1.4025 -4.0625 1.0625 C-3.0625 0.0625 -3.0625 0.0625 0 0 Z " fill="#C69673" transform="translate(40.0625,31.9375)"/>
<path d="M0 0 C0.33 0.66 0.66 1.32 1 2 C3.12576782 2.46651207 3.12576782 2.46651207 5.5625 2.625 C6.38878906 2.69976562 7.21507812 2.77453125 8.06640625 2.8515625 C8.70449219 2.90054688 9.34257812 2.94953125 10 3 C10 3.33 10 3.66 10 4 C6.37 4 2.74 4 -1 4 C-0.67 2.68 -0.34 1.36 0 0 Z " fill="#151109" transform="translate(5,147)"/>
<path d="M0 0 C0.99 0.33 1.98 0.66 3 1 C2.39816251 3.02045442 1.72693904 5.02111039 1 7 C0.01 7.495 0.01 7.495 -1 8 C-0.67 5.36 -0.34 2.72 0 0 Z " fill="#77715C" transform="translate(4,141)"/>
<path d="M0 0 C0 0.66 0 1.32 0 2 C-5.625 5 -5.625 5 -9 5 C-9 4.34 -9 3.68 -9 3 C-2.25 0 -2.25 0 0 0 Z " fill="#171627" transform="translate(53,103)"/>
<path d="M0 0 C1.65 0 3.3 0 5 0 C4.0409375 1.1446875 4.0409375 1.1446875 3.0625 2.3125 C0.85767219 4.88246713 0.85767219 4.88246713 0 8 C-0.66 6.35 -1.32 4.7 -2 3 C-1.34 2.34 -0.68 1.68 0 1 C0 0.67 0 0.34 0 0 Z " fill="#263447" transform="translate(31,104)"/>
<path d="M0 0 C1.32 0.33 2.64 0.66 4 1 C4 2.65 4 4.3 4 6 C3.01 5.67 2.02 5.34 1 5 C0.67 3.35 0.34 1.7 0 0 Z M4 0 C6 1 6 1 6 1 Z " fill="#D3DDEF" transform="translate(51,74)"/>
<path d="M0 0 C1.2077558 3.62326739 0.54311128 4.64146369 -1 8 C-1.99 8 -2.98 8 -4 8 C-3.34 6.02 -2.68 4.04 -2 2 C-1.34 2 -0.68 2 0 2 C0 1.34 0 0.68 0 0 Z " fill="#D4E4F4" transform="translate(51,61)"/>
<path d="M0 0 C2.31 0.33 4.62 0.66 7 1 C7 1.66 7 2.32 7 3 C4.69 3 2.38 3 0 3 C0 2.01 0 1.02 0 0 Z " fill="#F0BB9D" transform="translate(27,32)"/>
<path d="M0 0 C0.99 1.485 0.99 1.485 2 3 C4.05925139 3.72382467 4.05925139 3.72382467 6 4 C6.33 3.34 6.66 2.68 7 2 C7 2.99 7 3.98 7 5 C4.69 5.66 2.38 6.32 0 7 C0 4.69 0 2.38 0 0 Z " fill="#0D1820" transform="translate(33,98)"/>
<path d="M0 0 C0.33 0 0.66 0 1 0 C2.25 6.5 2.25 6.5 0 11 C-0.66 8.03 -1.32 5.06 -2 2 C-1.34 2 -0.68 2 0 2 C0 1.34 0 0.68 0 0 Z " fill="#E4B070" transform="translate(47,17)"/>
<path d="M0 0 C0 0.99 0 1.98 0 3 C-2.31 3 -4.62 3 -7 3 C-7 2.34 -7 1.68 -7 1 C-4.50935112 0.31292445 -2.62113708 0 0 0 Z " fill="#ADB2A9" transform="translate(18,145)"/>
<path d="M0 0 C2.31 0 4.62 0 7 0 C6.67 0.66 6.34 1.32 6 2 C3.67843403 2.40729228 1.3431213 2.74438677 -1 3 C-0.67 2.01 -0.34 1.02 0 0 Z " fill="#E0C8C2" transform="translate(43,93)"/>
</svg>
